<mxfile host="app.diagrams.net" modified="2021-03-05T17:14:41.883Z" agent="5.0 (Macintosh; Intel Mac OS X 10_15_7) AppleWebKit/537.36 (KHTML, like Gecko) Chrome/89.0.4389.72 Safari/537.36" etag="HT74WqMoyUwGVGBb5UDD" version="14.4.4" type="github">
  <diagram id="R2lEEEUBdFMjLlhIrx00" name="Page-1">
    <mxGraphModel dx="1566" dy="659" grid="1" gridSize="10" guides="1" tooltips="1" connect="1" arrows="1" fold="1" page="1" pageScale="1" pageWidth="850" pageHeight="1100" math="0" shadow="0" extFonts="Permanent Marker^https://fonts.googleapis.com/css?family=Permanent+Marker">
      <root>
        <mxCell id="0" />
        <mxCell id="1" parent="0" />
        <mxCell id="C-vyLk0tnHw3VtMMgP7b-23" value="User" style="shape=table;startSize=30;container=1;collapsible=1;childLayout=tableLayout;fixedRows=1;rowLines=0;fontStyle=1;align=center;resizeLast=1;" parent="1" vertex="1">
          <mxGeometry x="290" y="722" width="250" height="160" as="geometry" />
        </mxCell>
        <mxCell id="C-vyLk0tnHw3VtMMgP7b-24" value="" style="shape=partialRectangle;collapsible=0;dropTarget=0;pointerEvents=0;fillColor=none;points=[[0,0.5],[1,0.5]];portConstraint=eastwest;top=0;left=0;right=0;bottom=1;" parent="C-vyLk0tnHw3VtMMgP7b-23" vertex="1">
          <mxGeometry y="30" width="250" height="30" as="geometry" />
        </mxCell>
        <mxCell id="C-vyLk0tnHw3VtMMgP7b-25" value="PK" style="shape=partialRectangle;overflow=hidden;connectable=0;fillColor=none;top=0;left=0;bottom=0;right=0;fontStyle=1;" parent="C-vyLk0tnHw3VtMMgP7b-24" vertex="1">
          <mxGeometry width="30" height="30" as="geometry" />
        </mxCell>
        <mxCell id="C-vyLk0tnHw3VtMMgP7b-26" value="User_id" style="shape=partialRectangle;overflow=hidden;connectable=0;fillColor=none;top=0;left=0;bottom=0;right=0;align=left;spacingLeft=6;fontStyle=5;" parent="C-vyLk0tnHw3VtMMgP7b-24" vertex="1">
          <mxGeometry x="30" width="220" height="30" as="geometry" />
        </mxCell>
        <mxCell id="C-vyLk0tnHw3VtMMgP7b-27" value="" style="shape=partialRectangle;collapsible=0;dropTarget=0;pointerEvents=0;fillColor=none;points=[[0,0.5],[1,0.5]];portConstraint=eastwest;top=0;left=0;right=0;bottom=0;" parent="C-vyLk0tnHw3VtMMgP7b-23" vertex="1">
          <mxGeometry y="60" width="250" height="100" as="geometry" />
        </mxCell>
        <mxCell id="C-vyLk0tnHw3VtMMgP7b-28" value="" style="shape=partialRectangle;overflow=hidden;connectable=0;fillColor=none;top=0;left=0;bottom=0;right=0;" parent="C-vyLk0tnHw3VtMMgP7b-27" vertex="1">
          <mxGeometry width="30" height="100" as="geometry" />
        </mxCell>
        <mxCell id="C-vyLk0tnHw3VtMMgP7b-29" value="username:string&#xa;email:string&#xa;password:digest&#xa;record:string&#xa;&#xa;has_many :betslips&#xa;has_many :bets, through: :betslips" style="shape=partialRectangle;overflow=hidden;connectable=0;fillColor=none;top=0;left=0;bottom=0;right=0;align=left;spacingLeft=6;" parent="C-vyLk0tnHw3VtMMgP7b-27" vertex="1">
          <mxGeometry x="30" width="220" height="100" as="geometry" />
        </mxCell>
        <mxCell id="EgP4-3trIBoORtoUW_TL-1" value="Sports" style="shape=table;startSize=30;container=1;collapsible=1;childLayout=tableLayout;fixedRows=1;rowLines=0;fontStyle=1;align=center;resizeLast=1;" parent="1" vertex="1">
          <mxGeometry x="600" y="70" width="190" height="160" as="geometry" />
        </mxCell>
        <mxCell id="EgP4-3trIBoORtoUW_TL-2" value="" style="shape=partialRectangle;collapsible=0;dropTarget=0;pointerEvents=0;fillColor=none;top=0;left=0;bottom=1;right=0;points=[[0,0.5],[1,0.5]];portConstraint=eastwest;" parent="EgP4-3trIBoORtoUW_TL-1" vertex="1">
          <mxGeometry y="30" width="190" height="30" as="geometry" />
        </mxCell>
        <mxCell id="EgP4-3trIBoORtoUW_TL-3" value="PK" style="shape=partialRectangle;connectable=0;fillColor=none;top=0;left=0;bottom=0;right=0;fontStyle=1;overflow=hidden;" parent="EgP4-3trIBoORtoUW_TL-2" vertex="1">
          <mxGeometry width="30" height="30" as="geometry" />
        </mxCell>
        <mxCell id="EgP4-3trIBoORtoUW_TL-4" value="Sports_id" style="shape=partialRectangle;connectable=0;fillColor=none;top=0;left=0;bottom=0;right=0;align=left;spacingLeft=6;fontStyle=5;overflow=hidden;" parent="EgP4-3trIBoORtoUW_TL-2" vertex="1">
          <mxGeometry x="30" width="160" height="30" as="geometry" />
        </mxCell>
        <mxCell id="EgP4-3trIBoORtoUW_TL-5" value="" style="shape=partialRectangle;collapsible=0;dropTarget=0;pointerEvents=0;fillColor=none;top=0;left=0;bottom=0;right=0;points=[[0,0.5],[1,0.5]];portConstraint=eastwest;" parent="EgP4-3trIBoORtoUW_TL-1" vertex="1">
          <mxGeometry y="60" width="190" height="30" as="geometry" />
        </mxCell>
        <mxCell id="EgP4-3trIBoORtoUW_TL-6" value="" style="shape=partialRectangle;connectable=0;fillColor=none;top=0;left=0;bottom=0;right=0;editable=1;overflow=hidden;" parent="EgP4-3trIBoORtoUW_TL-5" vertex="1">
          <mxGeometry width="30" height="30" as="geometry" />
        </mxCell>
        <mxCell id="EgP4-3trIBoORtoUW_TL-7" value="name:string" style="shape=partialRectangle;connectable=0;fillColor=none;top=0;left=0;bottom=0;right=0;align=left;spacingLeft=6;overflow=hidden;" parent="EgP4-3trIBoORtoUW_TL-5" vertex="1">
          <mxGeometry x="30" width="160" height="30" as="geometry" />
        </mxCell>
        <mxCell id="EgP4-3trIBoORtoUW_TL-8" value="" style="shape=partialRectangle;collapsible=0;dropTarget=0;pointerEvents=0;fillColor=none;top=0;left=0;bottom=0;right=0;points=[[0,0.5],[1,0.5]];portConstraint=eastwest;" parent="EgP4-3trIBoORtoUW_TL-1" vertex="1">
          <mxGeometry y="90" width="190" height="30" as="geometry" />
        </mxCell>
        <mxCell id="EgP4-3trIBoORtoUW_TL-9" value="" style="shape=partialRectangle;connectable=0;fillColor=none;top=0;left=0;bottom=0;right=0;editable=1;overflow=hidden;" parent="EgP4-3trIBoORtoUW_TL-8" vertex="1">
          <mxGeometry width="30" height="30" as="geometry" />
        </mxCell>
        <mxCell id="EgP4-3trIBoORtoUW_TL-10" value="type: string" style="shape=partialRectangle;connectable=0;fillColor=none;top=0;left=0;bottom=0;right=0;align=left;spacingLeft=6;overflow=hidden;" parent="EgP4-3trIBoORtoUW_TL-8" vertex="1">
          <mxGeometry x="30" width="160" height="30" as="geometry" />
        </mxCell>
        <mxCell id="EgP4-3trIBoORtoUW_TL-11" value="" style="shape=partialRectangle;collapsible=0;dropTarget=0;pointerEvents=0;fillColor=none;top=0;left=0;bottom=0;right=0;points=[[0,0.5],[1,0.5]];portConstraint=eastwest;" parent="EgP4-3trIBoORtoUW_TL-1" vertex="1">
          <mxGeometry y="120" width="190" height="30" as="geometry" />
        </mxCell>
        <mxCell id="EgP4-3trIBoORtoUW_TL-12" value="" style="shape=partialRectangle;connectable=0;fillColor=none;top=0;left=0;bottom=0;right=0;editable=1;overflow=hidden;" parent="EgP4-3trIBoORtoUW_TL-11" vertex="1">
          <mxGeometry width="30" height="30" as="geometry" />
        </mxCell>
        <mxCell id="EgP4-3trIBoORtoUW_TL-13" value="has_many :leagues" style="shape=partialRectangle;connectable=0;fillColor=none;top=0;left=0;bottom=0;right=0;align=left;spacingLeft=6;overflow=hidden;" parent="EgP4-3trIBoORtoUW_TL-11" vertex="1">
          <mxGeometry x="30" width="160" height="30" as="geometry" />
        </mxCell>
        <mxCell id="EgP4-3trIBoORtoUW_TL-53" value="Leagues" style="shape=table;startSize=30;container=1;collapsible=1;childLayout=tableLayout;fixedRows=1;rowLines=0;fontStyle=1;align=center;resizeLast=1;" parent="1" vertex="1">
          <mxGeometry x="540" y="320" width="180" height="160" as="geometry" />
        </mxCell>
        <mxCell id="EgP4-3trIBoORtoUW_TL-54" value="" style="shape=partialRectangle;collapsible=0;dropTarget=0;pointerEvents=0;fillColor=none;top=0;left=0;bottom=1;right=0;points=[[0,0.5],[1,0.5]];portConstraint=eastwest;" parent="EgP4-3trIBoORtoUW_TL-53" vertex="1">
          <mxGeometry y="30" width="180" height="30" as="geometry" />
        </mxCell>
        <mxCell id="EgP4-3trIBoORtoUW_TL-55" value="PK" style="shape=partialRectangle;connectable=0;fillColor=none;top=0;left=0;bottom=0;right=0;fontStyle=1;overflow=hidden;" parent="EgP4-3trIBoORtoUW_TL-54" vertex="1">
          <mxGeometry width="30" height="30" as="geometry" />
        </mxCell>
        <mxCell id="EgP4-3trIBoORtoUW_TL-56" value="League_id" style="shape=partialRectangle;connectable=0;fillColor=none;top=0;left=0;bottom=0;right=0;align=left;spacingLeft=6;fontStyle=5;overflow=hidden;" parent="EgP4-3trIBoORtoUW_TL-54" vertex="1">
          <mxGeometry x="30" width="150" height="30" as="geometry" />
        </mxCell>
        <mxCell id="EgP4-3trIBoORtoUW_TL-57" value="" style="shape=partialRectangle;collapsible=0;dropTarget=0;pointerEvents=0;fillColor=none;top=0;left=0;bottom=0;right=0;points=[[0,0.5],[1,0.5]];portConstraint=eastwest;" parent="EgP4-3trIBoORtoUW_TL-53" vertex="1">
          <mxGeometry y="60" width="180" height="30" as="geometry" />
        </mxCell>
        <mxCell id="EgP4-3trIBoORtoUW_TL-58" value="FK" style="shape=partialRectangle;connectable=0;fillColor=none;top=0;left=0;bottom=0;right=0;editable=1;overflow=hidden;" parent="EgP4-3trIBoORtoUW_TL-57" vertex="1">
          <mxGeometry width="30" height="30" as="geometry" />
        </mxCell>
        <mxCell id="EgP4-3trIBoORtoUW_TL-59" value="sport_id" style="shape=partialRectangle;connectable=0;fillColor=none;top=0;left=0;bottom=0;right=0;align=left;spacingLeft=6;overflow=hidden;" parent="EgP4-3trIBoORtoUW_TL-57" vertex="1">
          <mxGeometry x="30" width="150" height="30" as="geometry" />
        </mxCell>
        <mxCell id="EgP4-3trIBoORtoUW_TL-60" value="" style="shape=partialRectangle;collapsible=0;dropTarget=0;pointerEvents=0;fillColor=none;top=0;left=0;bottom=0;right=0;points=[[0,0.5],[1,0.5]];portConstraint=eastwest;" parent="EgP4-3trIBoORtoUW_TL-53" vertex="1">
          <mxGeometry y="90" width="180" height="30" as="geometry" />
        </mxCell>
        <mxCell id="EgP4-3trIBoORtoUW_TL-61" value="" style="shape=partialRectangle;connectable=0;fillColor=none;top=0;left=0;bottom=0;right=0;editable=1;overflow=hidden;" parent="EgP4-3trIBoORtoUW_TL-60" vertex="1">
          <mxGeometry width="30" height="30" as="geometry" />
        </mxCell>
        <mxCell id="EgP4-3trIBoORtoUW_TL-62" value="name:string&#xa;" style="shape=partialRectangle;connectable=0;fillColor=none;top=0;left=0;bottom=0;right=0;align=left;spacingLeft=6;overflow=hidden;" parent="EgP4-3trIBoORtoUW_TL-60" vertex="1">
          <mxGeometry x="30" width="150" height="30" as="geometry" />
        </mxCell>
        <mxCell id="EgP4-3trIBoORtoUW_TL-63" value="" style="shape=partialRectangle;collapsible=0;dropTarget=0;pointerEvents=0;fillColor=none;top=0;left=0;bottom=0;right=0;points=[[0,0.5],[1,0.5]];portConstraint=eastwest;" parent="EgP4-3trIBoORtoUW_TL-53" vertex="1">
          <mxGeometry y="120" width="180" height="30" as="geometry" />
        </mxCell>
        <mxCell id="EgP4-3trIBoORtoUW_TL-64" value="" style="shape=partialRectangle;connectable=0;fillColor=none;top=0;left=0;bottom=0;right=0;editable=1;overflow=hidden;" parent="EgP4-3trIBoORtoUW_TL-63" vertex="1">
          <mxGeometry width="30" height="30" as="geometry" />
        </mxCell>
        <mxCell id="EgP4-3trIBoORtoUW_TL-65" value="has_many :events&#xa;belongs_to :sport" style="shape=partialRectangle;connectable=0;fillColor=none;top=0;left=0;bottom=0;right=0;align=left;spacingLeft=6;overflow=hidden;" parent="EgP4-3trIBoORtoUW_TL-63" vertex="1">
          <mxGeometry x="30" width="150" height="30" as="geometry" />
        </mxCell>
        <mxCell id="EgP4-3trIBoORtoUW_TL-66" value="Events" style="shape=table;startSize=30;container=1;collapsible=1;childLayout=tableLayout;fixedRows=1;rowLines=0;fontStyle=1;align=center;resizeLast=1;" parent="1" vertex="1">
          <mxGeometry x="780" y="420" width="180" height="220" as="geometry" />
        </mxCell>
        <mxCell id="EgP4-3trIBoORtoUW_TL-67" value="" style="shape=partialRectangle;collapsible=0;dropTarget=0;pointerEvents=0;fillColor=none;top=0;left=0;bottom=1;right=0;points=[[0,0.5],[1,0.5]];portConstraint=eastwest;" parent="EgP4-3trIBoORtoUW_TL-66" vertex="1">
          <mxGeometry y="30" width="180" height="30" as="geometry" />
        </mxCell>
        <mxCell id="EgP4-3trIBoORtoUW_TL-68" value="PK" style="shape=partialRectangle;connectable=0;fillColor=none;top=0;left=0;bottom=0;right=0;fontStyle=1;overflow=hidden;" parent="EgP4-3trIBoORtoUW_TL-67" vertex="1">
          <mxGeometry width="30" height="30" as="geometry" />
        </mxCell>
        <mxCell id="EgP4-3trIBoORtoUW_TL-69" value="Event_id" style="shape=partialRectangle;connectable=0;fillColor=none;top=0;left=0;bottom=0;right=0;align=left;spacingLeft=6;fontStyle=5;overflow=hidden;" parent="EgP4-3trIBoORtoUW_TL-67" vertex="1">
          <mxGeometry x="30" width="150" height="30" as="geometry" />
        </mxCell>
        <mxCell id="EgP4-3trIBoORtoUW_TL-70" value="" style="shape=partialRectangle;collapsible=0;dropTarget=0;pointerEvents=0;fillColor=none;top=0;left=0;bottom=0;right=0;points=[[0,0.5],[1,0.5]];portConstraint=eastwest;" parent="EgP4-3trIBoORtoUW_TL-66" vertex="1">
          <mxGeometry y="60" width="180" height="30" as="geometry" />
        </mxCell>
        <mxCell id="EgP4-3trIBoORtoUW_TL-71" value="FK" style="shape=partialRectangle;connectable=0;fillColor=none;top=0;left=0;bottom=0;right=0;editable=1;overflow=hidden;" parent="EgP4-3trIBoORtoUW_TL-70" vertex="1">
          <mxGeometry width="30" height="30" as="geometry" />
        </mxCell>
        <mxCell id="EgP4-3trIBoORtoUW_TL-72" value="league_id" style="shape=partialRectangle;connectable=0;fillColor=none;top=0;left=0;bottom=0;right=0;align=left;spacingLeft=6;overflow=hidden;" parent="EgP4-3trIBoORtoUW_TL-70" vertex="1">
          <mxGeometry x="30" width="150" height="30" as="geometry" />
        </mxCell>
        <mxCell id="EgP4-3trIBoORtoUW_TL-73" value="" style="shape=partialRectangle;collapsible=0;dropTarget=0;pointerEvents=0;fillColor=none;top=0;left=0;bottom=0;right=0;points=[[0,0.5],[1,0.5]];portConstraint=eastwest;" parent="EgP4-3trIBoORtoUW_TL-66" vertex="1">
          <mxGeometry y="90" width="180" height="30" as="geometry" />
        </mxCell>
        <mxCell id="EgP4-3trIBoORtoUW_TL-74" value="" style="shape=partialRectangle;connectable=0;fillColor=none;top=0;left=0;bottom=0;right=0;editable=1;overflow=hidden;" parent="EgP4-3trIBoORtoUW_TL-73" vertex="1">
          <mxGeometry width="30" height="30" as="geometry" />
        </mxCell>
        <mxCell id="EgP4-3trIBoORtoUW_TL-75" value="name:string" style="shape=partialRectangle;connectable=0;fillColor=none;top=0;left=0;bottom=0;right=0;align=left;spacingLeft=6;overflow=hidden;" parent="EgP4-3trIBoORtoUW_TL-73" vertex="1">
          <mxGeometry x="30" width="150" height="30" as="geometry" />
        </mxCell>
        <mxCell id="EgP4-3trIBoORtoUW_TL-76" value="" style="shape=partialRectangle;collapsible=0;dropTarget=0;pointerEvents=0;fillColor=none;top=0;left=0;bottom=0;right=0;points=[[0,0.5],[1,0.5]];portConstraint=eastwest;" parent="EgP4-3trIBoORtoUW_TL-66" vertex="1">
          <mxGeometry y="120" width="180" height="40" as="geometry" />
        </mxCell>
        <mxCell id="EgP4-3trIBoORtoUW_TL-77" value="" style="shape=partialRectangle;connectable=0;fillColor=none;top=0;left=0;bottom=0;right=0;editable=1;overflow=hidden;" parent="EgP4-3trIBoORtoUW_TL-76" vertex="1">
          <mxGeometry width="30" height="40" as="geometry" />
        </mxCell>
        <mxCell id="EgP4-3trIBoORtoUW_TL-78" value="time:datetime" style="shape=partialRectangle;connectable=0;fillColor=none;top=0;left=0;bottom=0;right=0;align=left;spacingLeft=6;overflow=hidden;" parent="EgP4-3trIBoORtoUW_TL-76" vertex="1">
          <mxGeometry x="30" width="150" height="40" as="geometry" />
        </mxCell>
        <mxCell id="EgP4-3trIBoORtoUW_TL-81" value="belongs_to :league&lt;br&gt;has_many :bets" style="text;html=1;resizable=0;autosize=1;align=center;verticalAlign=middle;points=[];fillColor=none;strokeColor=none;rounded=0;" parent="1" vertex="1">
          <mxGeometry x="810" y="605" width="120" height="30" as="geometry" />
        </mxCell>
        <mxCell id="EgP4-3trIBoORtoUW_TL-91" value="" style="edgeStyle=entityRelationEdgeStyle;fontSize=12;html=1;endArrow=ERoneToMany;entryX=0;entryY=0.5;entryDx=0;entryDy=0;exitX=1;exitY=0.5;exitDx=0;exitDy=0;" parent="1" source="EgP4-3trIBoORtoUW_TL-54" target="EgP4-3trIBoORtoUW_TL-70" edge="1">
          <mxGeometry width="100" height="100" relative="1" as="geometry">
            <mxPoint x="390" y="610" as="sourcePoint" />
            <mxPoint x="480" y="570" as="targetPoint" />
          </mxGeometry>
        </mxCell>
        <mxCell id="EgP4-3trIBoORtoUW_TL-92" value="" style="edgeStyle=entityRelationEdgeStyle;fontSize=12;html=1;endArrow=ERoneToMany;exitX=1;exitY=0.5;exitDx=0;exitDy=0;" parent="1" source="EgP4-3trIBoORtoUW_TL-2" edge="1">
          <mxGeometry width="100" height="100" relative="1" as="geometry">
            <mxPoint x="560" y="360" as="sourcePoint" />
            <mxPoint x="540" y="365" as="targetPoint" />
          </mxGeometry>
        </mxCell>
        <mxCell id="EgP4-3trIBoORtoUW_TL-93" value="betslip" style="shape=table;startSize=30;container=1;collapsible=1;childLayout=tableLayout;fixedRows=1;rowLines=0;fontStyle=1;align=center;resizeLast=1;" parent="1" vertex="1">
          <mxGeometry x="590" y="1010" width="180" height="228" as="geometry" />
        </mxCell>
        <mxCell id="EgP4-3trIBoORtoUW_TL-94" value="" style="shape=partialRectangle;collapsible=0;dropTarget=0;pointerEvents=0;fillColor=none;top=0;left=0;bottom=1;right=0;points=[[0,0.5],[1,0.5]];portConstraint=eastwest;" parent="EgP4-3trIBoORtoUW_TL-93" vertex="1">
          <mxGeometry y="30" width="180" height="30" as="geometry" />
        </mxCell>
        <mxCell id="EgP4-3trIBoORtoUW_TL-95" value="PK" style="shape=partialRectangle;connectable=0;fillColor=none;top=0;left=0;bottom=0;right=0;fontStyle=1;overflow=hidden;" parent="EgP4-3trIBoORtoUW_TL-94" vertex="1">
          <mxGeometry width="30" height="30" as="geometry" />
        </mxCell>
        <mxCell id="EgP4-3trIBoORtoUW_TL-96" value="Betslip_id" style="shape=partialRectangle;connectable=0;fillColor=none;top=0;left=0;bottom=0;right=0;align=left;spacingLeft=6;fontStyle=5;overflow=hidden;" parent="EgP4-3trIBoORtoUW_TL-94" vertex="1">
          <mxGeometry x="30" width="150" height="30" as="geometry" />
        </mxCell>
        <mxCell id="EgP4-3trIBoORtoUW_TL-97" value="" style="shape=partialRectangle;collapsible=0;dropTarget=0;pointerEvents=0;fillColor=none;top=0;left=0;bottom=0;right=0;points=[[0,0.5],[1,0.5]];portConstraint=eastwest;" parent="EgP4-3trIBoORtoUW_TL-93" vertex="1">
          <mxGeometry y="60" width="180" height="38" as="geometry" />
        </mxCell>
        <mxCell id="EgP4-3trIBoORtoUW_TL-98" value="FK&#xa;FK" style="shape=partialRectangle;connectable=0;fillColor=none;top=0;left=0;bottom=0;right=0;editable=1;overflow=hidden;" parent="EgP4-3trIBoORtoUW_TL-97" vertex="1">
          <mxGeometry width="30" height="38" as="geometry" />
        </mxCell>
        <mxCell id="EgP4-3trIBoORtoUW_TL-99" value="user_id&#xa;bet_id" style="shape=partialRectangle;connectable=0;fillColor=none;top=0;left=0;bottom=0;right=0;align=left;spacingLeft=6;overflow=hidden;" parent="EgP4-3trIBoORtoUW_TL-97" vertex="1">
          <mxGeometry x="30" width="150" height="38" as="geometry" />
        </mxCell>
        <mxCell id="EgP4-3trIBoORtoUW_TL-100" value="" style="shape=partialRectangle;collapsible=0;dropTarget=0;pointerEvents=0;fillColor=none;top=0;left=0;bottom=0;right=0;points=[[0,0.5],[1,0.5]];portConstraint=eastwest;" parent="EgP4-3trIBoORtoUW_TL-93" vertex="1">
          <mxGeometry y="98" width="180" height="60" as="geometry" />
        </mxCell>
        <mxCell id="EgP4-3trIBoORtoUW_TL-101" value="" style="shape=partialRectangle;connectable=0;fillColor=none;top=0;left=0;bottom=0;right=0;editable=1;overflow=hidden;" parent="EgP4-3trIBoORtoUW_TL-100" vertex="1">
          <mxGeometry width="30" height="60" as="geometry" />
        </mxCell>
        <mxCell id="EgP4-3trIBoORtoUW_TL-102" value="placed: boolean&#xa;amount: integer &#xa;status: string&#xa;" style="shape=partialRectangle;connectable=0;fillColor=none;top=0;left=0;bottom=0;right=0;align=left;spacingLeft=6;overflow=hidden;" parent="EgP4-3trIBoORtoUW_TL-100" vertex="1">
          <mxGeometry x="30" width="150" height="60" as="geometry" />
        </mxCell>
        <mxCell id="EgP4-3trIBoORtoUW_TL-103" value="" style="shape=partialRectangle;collapsible=0;dropTarget=0;pointerEvents=0;fillColor=none;top=0;left=0;bottom=0;right=0;points=[[0,0.5],[1,0.5]];portConstraint=eastwest;" parent="EgP4-3trIBoORtoUW_TL-93" vertex="1">
          <mxGeometry y="158" width="180" height="70" as="geometry" />
        </mxCell>
        <mxCell id="EgP4-3trIBoORtoUW_TL-104" value="" style="shape=partialRectangle;connectable=0;fillColor=none;top=0;left=0;bottom=0;right=0;editable=1;overflow=hidden;" parent="EgP4-3trIBoORtoUW_TL-103" vertex="1">
          <mxGeometry width="30" height="70" as="geometry" />
        </mxCell>
        <mxCell id="EgP4-3trIBoORtoUW_TL-105" value="belongs_to user&#xa;belongs_to bet" style="shape=partialRectangle;connectable=0;fillColor=none;top=0;left=0;bottom=0;right=0;align=left;spacingLeft=6;overflow=hidden;" parent="EgP4-3trIBoORtoUW_TL-103" vertex="1">
          <mxGeometry x="30" width="150" height="70" as="geometry" />
        </mxCell>
        <mxCell id="EgP4-3trIBoORtoUW_TL-106" value="Bets" style="shape=table;startSize=30;container=1;collapsible=1;childLayout=tableLayout;fixedRows=1;rowLines=0;fontStyle=1;align=center;resizeLast=1;" parent="1" vertex="1">
          <mxGeometry x="830" y="720" width="180" height="240" as="geometry" />
        </mxCell>
        <mxCell id="EgP4-3trIBoORtoUW_TL-107" value="" style="shape=partialRectangle;collapsible=0;dropTarget=0;pointerEvents=0;fillColor=none;top=0;left=0;bottom=1;right=0;points=[[0,0.5],[1,0.5]];portConstraint=eastwest;" parent="EgP4-3trIBoORtoUW_TL-106" vertex="1">
          <mxGeometry y="30" width="180" height="30" as="geometry" />
        </mxCell>
        <mxCell id="EgP4-3trIBoORtoUW_TL-108" value="PK" style="shape=partialRectangle;connectable=0;fillColor=none;top=0;left=0;bottom=0;right=0;fontStyle=1;overflow=hidden;" parent="EgP4-3trIBoORtoUW_TL-107" vertex="1">
          <mxGeometry width="30" height="30" as="geometry" />
        </mxCell>
        <mxCell id="EgP4-3trIBoORtoUW_TL-109" value="bet_id" style="shape=partialRectangle;connectable=0;fillColor=none;top=0;left=0;bottom=0;right=0;align=left;spacingLeft=6;fontStyle=5;overflow=hidden;" parent="EgP4-3trIBoORtoUW_TL-107" vertex="1">
          <mxGeometry x="30" width="150" height="30" as="geometry" />
        </mxCell>
        <mxCell id="EgP4-3trIBoORtoUW_TL-110" value="" style="shape=partialRectangle;collapsible=0;dropTarget=0;pointerEvents=0;fillColor=none;top=0;left=0;bottom=0;right=0;points=[[0,0.5],[1,0.5]];portConstraint=eastwest;" parent="EgP4-3trIBoORtoUW_TL-106" vertex="1">
          <mxGeometry y="60" width="180" height="30" as="geometry" />
        </mxCell>
        <mxCell id="EgP4-3trIBoORtoUW_TL-111" value="FK" style="shape=partialRectangle;connectable=0;fillColor=none;top=0;left=0;bottom=0;right=0;editable=1;overflow=hidden;" parent="EgP4-3trIBoORtoUW_TL-110" vertex="1">
          <mxGeometry width="30" height="30" as="geometry" />
        </mxCell>
        <mxCell id="EgP4-3trIBoORtoUW_TL-112" value="Event_id" style="shape=partialRectangle;connectable=0;fillColor=none;top=0;left=0;bottom=0;right=0;align=left;spacingLeft=6;overflow=hidden;" parent="EgP4-3trIBoORtoUW_TL-110" vertex="1">
          <mxGeometry x="30" width="150" height="30" as="geometry" />
        </mxCell>
        <mxCell id="EgP4-3trIBoORtoUW_TL-113" value="" style="shape=partialRectangle;collapsible=0;dropTarget=0;pointerEvents=0;fillColor=none;top=0;left=0;bottom=0;right=0;points=[[0,0.5],[1,0.5]];portConstraint=eastwest;" parent="EgP4-3trIBoORtoUW_TL-106" vertex="1">
          <mxGeometry y="90" width="180" height="70" as="geometry" />
        </mxCell>
        <mxCell id="EgP4-3trIBoORtoUW_TL-114" value="" style="shape=partialRectangle;connectable=0;fillColor=none;top=0;left=0;bottom=0;right=0;editable=1;overflow=hidden;" parent="EgP4-3trIBoORtoUW_TL-113" vertex="1">
          <mxGeometry width="30" height="70" as="geometry" />
        </mxCell>
        <mxCell id="EgP4-3trIBoORtoUW_TL-115" value="amount:integer&#xa;placed :boolean&#xa;time:datetime&#xa;odds: integer" style="shape=partialRectangle;connectable=0;fillColor=none;top=0;left=0;bottom=0;right=0;align=left;spacingLeft=6;overflow=hidden;" parent="EgP4-3trIBoORtoUW_TL-113" vertex="1">
          <mxGeometry x="30" width="150" height="70" as="geometry" />
        </mxCell>
        <mxCell id="EgP4-3trIBoORtoUW_TL-116" value="" style="shape=partialRectangle;collapsible=0;dropTarget=0;pointerEvents=0;fillColor=none;top=0;left=0;bottom=0;right=0;points=[[0,0.5],[1,0.5]];portConstraint=eastwest;" parent="EgP4-3trIBoORtoUW_TL-106" vertex="1">
          <mxGeometry y="160" width="180" height="30" as="geometry" />
        </mxCell>
        <mxCell id="EgP4-3trIBoORtoUW_TL-117" value="" style="shape=partialRectangle;connectable=0;fillColor=none;top=0;left=0;bottom=0;right=0;editable=1;overflow=hidden;" parent="EgP4-3trIBoORtoUW_TL-116" vertex="1">
          <mxGeometry width="30" height="30" as="geometry" />
        </mxCell>
        <mxCell id="EgP4-3trIBoORtoUW_TL-118" value="belongs_to :event&#xa;has_many_betslips&#xa;has many users, through: &#xa;betslips" style="shape=partialRectangle;connectable=0;fillColor=none;top=0;left=0;bottom=0;right=0;align=left;spacingLeft=6;overflow=hidden;" parent="EgP4-3trIBoORtoUW_TL-116" vertex="1">
          <mxGeometry x="30" width="150" height="30" as="geometry" />
        </mxCell>
        <mxCell id="EgP4-3trIBoORtoUW_TL-119" value="" style="edgeStyle=entityRelationEdgeStyle;fontSize=12;html=1;endArrow=ERmany;startArrow=ERmany;entryX=-0.019;entryY=0.279;entryDx=0;entryDy=0;exitX=1;exitY=0.5;exitDx=0;exitDy=0;entryPerimeter=0;" parent="1" source="C-vyLk0tnHw3VtMMgP7b-24" target="EgP4-3trIBoORtoUW_TL-97" edge="1">
          <mxGeometry width="100" height="100" relative="1" as="geometry">
            <mxPoint x="340" y="1020" as="sourcePoint" />
            <mxPoint x="410" y="770" as="targetPoint" />
          </mxGeometry>
        </mxCell>
        <mxCell id="EgP4-3trIBoORtoUW_TL-120" value="" style="edgeStyle=entityRelationEdgeStyle;fontSize=12;html=1;endArrow=ERmany;startArrow=ERmany;entryX=-0.013;entryY=0.542;entryDx=0;entryDy=0;entryPerimeter=0;" parent="1" target="EgP4-3trIBoORtoUW_TL-107" edge="1">
          <mxGeometry width="100" height="100" relative="1" as="geometry">
            <mxPoint x="771" y="1100" as="sourcePoint" />
            <mxPoint x="710" y="920" as="targetPoint" />
          </mxGeometry>
        </mxCell>
        <mxCell id="EgP4-3trIBoORtoUW_TL-121" value="" style="edgeStyle=entityRelationEdgeStyle;fontSize=12;html=1;endArrow=ERoneToMany;entryX=1;entryY=0.5;entryDx=0;entryDy=0;" parent="1" target="EgP4-3trIBoORtoUW_TL-67" edge="1">
          <mxGeometry width="100" height="100" relative="1" as="geometry">
            <mxPoint x="1010" y="790" as="sourcePoint" />
            <mxPoint x="1190" y="560" as="targetPoint" />
          </mxGeometry>
        </mxCell>
      </root>
    </mxGraphModel>
  </diagram>
</mxfile>
